<svg width="43" height="44" viewBox="0 0 43 44" fill="none" xmlns="http://www.w3.org/2000/svg">
<path fill-rule="evenodd" clip-rule="evenodd" d="M21.5007 15.9388C24.2218 15.9388 26.4277 13.7277 26.4277 11.0001C26.4277 8.27244 24.2218 6.06128 21.5007 6.06128C18.7795 6.06128 16.5736 8.27244 16.5736 11.0001C16.5736 13.7277 18.7795 15.9388 21.5007 15.9388ZM21.5007 14.1429C23.2323 14.1429 24.6361 12.7358 24.6361 11.0001C24.6361 9.2643 23.2323 7.8572 21.5007 7.8572C19.769 7.8572 18.3652 9.2643 18.3652 11.0001C18.3652 12.7358 19.769 14.1429 21.5007 14.1429ZM16.1257 26.6608C16.1257 26.7701 16.1355 26.8885 16.1551 27.0135C14.4948 28.4417 13.4382 30.533 13.4382 32.8717C13.4382 33.7308 13.6077 35.0168 14.098 36.1227C14.583 37.2168 15.5152 38.3878 17.121 38.3878C18.6843 38.3878 20.0076 37.1547 20.0076 35.5656C20.0076 34.8895 19.7365 34.3053 19.5529 33.9094L19.5265 33.8526C19.315 33.3949 19.2113 33.1359 19.2113 32.8717C19.2113 32.6122 19.3599 32.1789 19.6828 31.683C19.8705 31.3949 20.084 31.1364 20.2866 30.9332C20.7065 31.0958 21.1187 31.2041 21.5007 31.2041C21.8827 31.2041 22.2949 31.0958 22.7147 30.9333C22.9173 31.1364 23.1308 31.395 23.3185 31.683C23.6414 32.1789 23.79 32.6122 23.79 32.8717C23.79 33.1286 23.6858 33.393 23.4731 33.8587L23.4453 33.9196C23.2632 34.3161 22.9938 34.9035 22.9938 35.5656C22.9938 37.1547 24.3171 38.3878 25.8803 38.3878C27.4808 38.3878 28.4041 37.141 28.8808 36.0628C29.3729 34.9497 29.5632 33.6683 29.5632 32.8717C29.5632 30.5331 28.5065 28.4418 26.8463 27.0135C26.8659 26.8885 26.8757 26.7701 26.8757 26.6608V22.0459C27.2306 21.976 27.5905 21.8994 27.9561 21.8164C28.7016 21.6474 29.4716 21.4518 30.2754 21.2302C31.7066 20.8359 32.5479 19.3534 32.1545 17.9187C31.7612 16.4842 30.2821 15.6409 28.8509 16.0352C25.8373 16.8654 23.6383 17.218 21.5119 17.2089C19.3766 17.1999 17.1665 16.8261 14.1186 16.0266C12.6826 15.65 11.214 16.5115 10.8382 17.9508C10.4625 19.39 11.3219 20.8623 12.7578 21.2389C13.9431 21.5497 15.056 21.8129 16.1257 22.0223V26.6608ZM29.5879 19.5568C29.6585 19.5376 29.7293 19.5182 29.8006 19.4986C30.2776 19.3671 30.5581 18.8729 30.4269 18.3947C30.2959 17.9166 29.8028 17.6354 29.3258 17.7669C26.222 18.6219 23.8511 19.0148 21.5042 19.0048C19.1546 18.9949 16.78 18.5811 13.6649 17.764C13.1863 17.6385 12.6968 17.9257 12.5715 18.4054C12.4462 18.8852 12.7327 19.3759 13.2113 19.5014C14.6424 19.8768 15.9431 20.1751 17.1757 20.3909C17.6045 20.466 17.9173 20.8391 17.9173 21.2755V24.0205H25.084V21.2994C25.084 20.8628 25.3973 20.4895 25.8263 20.4147C26.9989 20.2102 28.2349 19.9244 29.5879 19.5568ZM15.2298 32.8717C15.2298 31.286 15.8668 29.8371 16.9187 28.7554C17.278 29.2422 17.779 29.7166 18.453 30.0725C18.4978 30.0962 18.5435 30.1195 18.59 30.1421C18.4446 30.3214 18.3075 30.5096 18.1826 30.7012C17.7872 31.3083 17.4196 32.097 17.4196 32.8717C17.4196 33.5682 17.6944 34.1615 17.8813 34.5653L17.9007 34.6072C18.1161 35.0734 18.2159 35.3196 18.2159 35.5656C18.2159 36.102 17.7567 36.5919 17.121 36.5919C16.5647 36.5919 16.1034 36.2236 15.7354 35.3935C15.3726 34.5753 15.2298 33.5521 15.2298 32.8717ZM24.8187 30.7012C24.6939 30.5096 24.5567 30.3214 24.4113 30.1421C25.1549 29.7799 25.6994 29.2747 26.0827 28.7555C27.1346 29.8372 27.7715 31.286 27.7715 32.8717C27.7715 33.4568 27.6188 34.4845 27.2428 35.3351C26.8514 36.2205 26.3811 36.5919 25.8803 36.5919C25.2446 36.5919 24.7854 36.102 24.7854 35.5656C24.7854 35.3307 24.8849 35.0821 25.1023 34.6061L25.1219 34.5632C25.3078 34.1571 25.5816 33.5585 25.5816 32.8717C25.5816 32.097 25.2142 31.3083 24.8187 30.7012ZM23.4204 28.827C24.6748 28.3487 25.0836 27.3506 25.0836 26.9621V25.7715H17.9169V26.9621C17.9169 27.3506 18.3257 28.3487 19.58 28.827C19.7235 28.8817 19.8849 28.9503 20.0298 29.0119L20.1152 29.0481C20.2934 29.1236 20.4658 29.1949 20.6402 29.2582C21.0039 29.3901 21.2876 29.4531 21.5002 29.4531C21.7128 29.4531 21.9965 29.3901 22.3602 29.2582C22.5346 29.1949 22.7071 29.1236 22.8853 29.0481L22.9705 29.0119M23.4204 28.827C23.2769 28.8817 23.1156 28.9503 22.9705 29.0119L23.4204 28.827Z" fill="white"/>
</svg>
