<svg width="44" height="44" viewBox="0 0 44 44" fill="none" xmlns="http://www.w3.org/2000/svg">
<g clip-path="url(#clip0_1910_1287)">
<path d="M38.9159 1.89063C36.3988 -0.62948 32.2329 -0.630597 29.7158 1.88977C28.498 3.10673 27.8274 4.72527 27.8274 6.44703C27.8274 8.16878 28.498 9.78724 29.7152 11.0037C29.7699 11.0583 29.823 11.1143 29.8745 11.1714C29.32 11.6185 28.8992 12.2131 28.6623 12.8921H27.1561C25.0238 12.8921 23.2891 14.6268 23.2891 16.7591V25.8613C22.8679 25.8094 22.4377 25.7821 22.0001 25.7821C21.5625 25.7821 21.1323 25.8095 20.7112 25.8613V16.759C20.7112 14.6267 18.9764 12.892 16.8442 12.892H15.338C15.101 12.213 14.6802 11.6184 14.1258 11.1713C14.1772 11.1145 14.2301 11.0587 14.2846 11.0042C15.5023 9.78724 16.173 8.1687 16.173 6.44694C16.173 4.72519 15.5022 3.10673 14.2852 1.89063C11.7678 -0.62991 7.60202 -0.63034 5.08492 1.89012C-1.69227 8.66731 -1.69227 19.6947 5.08432 26.4714C7.4952 28.8852 11.6681 29.0919 14.2844 26.4722C15.5022 25.2553 16.1728 23.6367 16.1728 21.915C16.1728 20.1932 15.5022 18.5748 14.285 17.3583C14.2303 17.3037 14.1772 17.2477 14.1257 17.1907C14.6802 16.7435 15.101 16.1489 15.3379 15.47H16.8441C17.5549 15.47 18.133 16.0483 18.133 16.759V26.5292C15.0873 27.7727 12.9771 30.437 12.9771 33.516C12.9771 36.511 15.0126 39.2119 18.133 40.4793V42.7109C18.133 43.4228 18.7102 43.9998 19.422 43.9998H24.5782C25.2901 43.9998 25.8671 43.4227 25.8671 42.7109V40.4793C28.9876 39.2118 31.0231 36.5109 31.0231 33.516C31.0231 30.437 28.9128 27.7727 25.8671 26.5292V16.759C25.8671 16.0482 26.4454 15.47 27.1561 15.47H28.6623C28.8993 16.149 29.3201 16.7436 29.8745 17.1907C29.8231 17.2475 29.7702 17.3033 29.7157 17.3578C28.4979 18.5748 27.8273 20.1933 27.8273 21.9151C27.8273 23.6368 28.4979 25.2553 29.7148 26.4715C32.3191 29.079 36.4922 28.898 38.9151 26.472C45.6925 19.6947 45.6925 8.66731 38.9159 1.89063ZM12.4612 24.6496C10.8754 26.2374 8.33533 26.0783 6.90782 24.6491C4.11641 21.8576 2.57907 18.1399 2.57907 14.181C2.57907 10.2222 4.11641 6.50444 6.90842 3.7125C8.41826 2.20078 10.951 2.20044 12.462 3.71336C13.1925 4.4434 13.5948 5.41415 13.5948 6.44712C13.5948 7.48008 13.1924 8.45083 12.4615 9.18138C11.8982 9.74513 11.4384 10.3927 11.0945 11.1063C10.9238 11.4604 10.9242 11.873 11.0953 12.2269C11.2664 12.5808 11.5897 12.8373 11.9732 12.9234C12.555 13.0541 12.9772 13.5831 12.9772 14.181C12.9772 14.779 12.5549 15.3079 11.9732 15.4387C11.5897 15.5248 11.2664 15.7813 11.0953 16.1352C10.9242 16.4892 10.9238 16.9017 11.0945 17.2558C11.4384 17.9694 11.8984 18.617 12.4621 19.1812C13.1926 19.9113 13.5949 20.882 13.5949 21.915C13.5948 22.9479 13.1924 23.9187 12.4612 24.6496ZM28.445 33.516C28.445 35.6455 26.7438 37.5803 24.2118 38.3305C23.6644 38.4926 23.2889 38.9955 23.2889 39.5663V41.4218H20.711V39.5664C20.711 38.9955 20.3355 38.4927 19.7881 38.3306C17.2561 37.5804 15.5549 35.6455 15.5549 33.5161C15.5549 30.673 18.4461 28.3601 22 28.3601C25.5538 28.36 28.445 30.673 28.445 33.516ZM37.0918 24.6496C35.6853 26.0578 33.1465 26.2591 31.5381 24.6487C30.8077 23.9187 30.4054 22.9479 30.4054 21.915C30.4054 20.882 30.8078 19.9113 31.5387 19.1806C32.102 18.617 32.5618 17.9694 32.9057 17.2558C33.0763 16.9016 33.076 16.4891 32.9049 16.1352C32.7338 15.7813 32.4105 15.5248 32.027 15.4387C31.4452 15.3079 31.0229 14.779 31.0229 14.181C31.0229 13.5831 31.4452 13.0541 32.027 12.9234C32.4105 12.8372 32.7338 12.5808 32.9049 12.2269C33.076 11.8729 33.0763 11.4604 32.9057 11.1063C32.5618 10.3927 32.1018 9.74513 31.5381 9.18087C30.8076 8.45083 30.4053 7.48008 30.4053 6.44712C30.4053 5.41423 30.8077 4.4434 31.5388 3.7125C33.0488 2.20061 35.5817 2.20069 37.0922 3.71302C39.8836 6.50452 41.4209 10.2222 41.4209 14.181C41.4209 18.1399 39.8837 21.8575 37.0918 24.6496Z" fill="white"/>
</g>
<defs>
<clipPath id="clip0_1910_1287">
<rect width="44" height="44" fill="white"/>
</clipPath>
</defs>
</svg>
