<svg width="52" height="52" viewBox="0 0 52 52" fill="none" xmlns="http://www.w3.org/2000/svg">
<g clip-path="url(#clip0_2091_7150)">
<path d="M17.9339 22.708C17.2559 22.708 16.5931 22.9091 16.0294 23.2857C15.4656 23.6624 15.0263 24.1978 14.7668 24.8242C14.5073 25.4506 14.4395 26.1398 14.5717 26.8048C14.704 27.4697 15.0305 28.0806 15.5099 28.56C15.9893 29.0394 16.6001 29.3659 17.2651 29.4981C17.9301 29.6304 18.6193 29.5625 19.2457 29.3031C19.8721 29.0436 20.4075 28.6042 20.7841 28.0405C21.1608 27.4768 21.3619 26.814 21.3619 26.136C21.3608 25.2272 20.9993 24.3559 20.3567 23.7132C19.714 23.0706 18.8427 22.7091 17.9339 22.708Z" fill="white"/>
<path d="M26.4046 14.8934C27.0826 14.8934 27.7454 14.6924 28.3091 14.3157C28.8729 13.939 29.3123 13.4036 29.5717 12.7772C29.8312 12.1509 29.8991 11.4616 29.7668 10.7966C29.6345 10.1316 29.308 9.52083 28.8286 9.04141C28.3492 8.56199 27.7384 8.2355 27.0734 8.10323C26.4084 7.97095 25.7192 8.03883 25.0928 8.29829C24.4664 8.55774 23.931 8.99712 23.5543 9.56085C23.1776 10.1246 22.9766 10.7874 22.9766 11.4654C22.9776 12.3742 23.339 13.2456 23.9817 13.8883C24.6244 14.531 25.4958 14.8925 26.4046 14.8934Z" fill="white"/>
<path d="M9.4613 8.03735C8.78329 8.03734 8.1205 8.23839 7.55676 8.61507C6.99301 8.99174 6.55362 9.52713 6.29416 10.1535C6.03469 10.7799 5.9668 11.4692 6.09907 12.1342C6.23134 12.7992 6.55784 13.41 7.03726 13.8894C7.51669 14.3688 8.12751 14.6953 8.7925 14.8276C9.45748 14.9599 10.1467 14.892 10.7731 14.6325C11.3995 14.373 11.9349 13.9336 12.3116 13.3699C12.6883 12.8061 12.8893 12.1433 12.8893 11.4653C12.8882 10.5565 12.5267 9.68519 11.8841 9.04255C11.2414 8.3999 10.3701 8.0384 9.4613 8.03735Z" fill="white"/>
<path d="M52.0002 29.0278C51.9995 26.98 51.5688 24.9552 50.7363 23.0844C49.9037 21.2135 48.6876 19.5383 47.1668 18.167C45.646 16.7957 43.8543 15.7589 41.9075 15.1237C39.9608 14.4885 37.9024 14.269 35.8654 14.4794V6.57431C35.8654 6.40066 35.8197 6.23008 35.7329 6.0797C35.6461 5.92932 35.5212 5.80444 35.3708 5.71762L26.8991 0.826383C26.7487 0.739558 26.5781 0.693848 26.4044 0.693848C26.2308 0.693848 26.0602 0.739558 25.9098 0.826383L17.9327 5.43205L9.95562 0.826383C9.80523 0.739558 9.63464 0.693848 9.46099 0.693848C9.28733 0.693848 9.11674 0.739558 8.96635 0.826383L0.49463 5.71762C0.344236 5.80443 0.219347 5.9293 0.132519 6.07968C0.045692 6.23007 -1.29678e-05 6.40066 4.23012e-09 6.57431V16.3566C-1.60541e-05 16.5303 0.0456883 16.7009 0.132516 16.8513C0.219344 17.0016 0.344234 17.1265 0.49463 17.2133L8.47172 21.819V31.0271C8.47171 31.2007 8.51742 31.3713 8.60425 31.5217C8.69108 31.6721 8.81596 31.797 8.96635 31.8838L17.4381 36.775C17.5885 36.8618 17.7591 36.9075 17.9327 36.9075C18.1064 36.9075 18.277 36.8618 18.4274 36.775L23.5542 33.8149C24.2328 35.7757 25.321 37.5696 26.7465 39.0774C28.1719 40.5851 29.902 41.7722 31.8216 42.5596C33.7413 43.3471 35.8066 43.717 37.8802 43.6446C39.9538 43.5722 41.9883 43.0593 43.8484 42.14L49.8111 51.3061L51.4695 50.2272L45.5599 41.1427C47.5425 39.8042 49.1664 37.9997 50.2892 35.8875C51.4121 33.7753 51.9996 31.4199 52.0002 29.0278ZM18.922 7.14549L26.4044 2.82542L33.8869 7.14549V14.8233C30.7731 15.5927 27.9978 17.3626 25.9867 19.8613L18.922 15.7824V7.14549ZM1.97852 15.7855V7.14549L9.46099 2.82542L16.9435 7.14549V15.7824L9.45835 20.104L1.97852 15.7855ZM17.9327 34.776L10.4502 30.4559V21.8189L17.9327 17.4988L24.8453 21.4898C22.975 24.5938 22.3248 28.2819 23.0208 31.8382L17.9327 34.776ZM24.7273 29.0278C24.7273 26.5264 25.4691 24.0812 26.8588 22.0014C28.2485 19.9215 30.2237 18.3005 32.5347 17.3433C34.8457 16.3861 37.3886 16.1356 39.8419 16.6236C42.2952 17.1117 44.5488 18.3162 46.3175 20.085C48.0862 21.8537 49.2907 24.1072 49.7787 26.5606C50.2667 29.0139 50.0162 31.5568 49.059 33.8678C48.1017 36.1788 46.4807 38.154 44.4009 39.5437C42.321 40.9333 39.8758 41.6751 37.3745 41.6751C34.0214 41.6713 30.8067 40.3376 28.4357 37.9666C26.0647 35.5955 24.731 32.3809 24.7273 29.0278Z" fill="white"/>
<path d="M44.9097 24.1052L37.8676 20.0395C37.7172 19.9527 37.5466 19.907 37.373 19.907C37.1993 19.907 37.0287 19.9527 36.8784 20.0396L29.8364 24.1052C29.686 24.192 29.5612 24.3169 29.4743 24.4673C29.3875 24.6177 29.3418 24.7883 29.3418 24.9619V33.0933C29.3418 33.267 29.3875 33.4376 29.4743 33.5879C29.5612 33.7383 29.686 33.8632 29.8364 33.9501L36.8784 38.0157C37.0288 38.1025 37.1993 38.1482 37.373 38.1482C37.5466 38.1482 37.7172 38.1025 37.8676 38.0157L44.9097 33.95C45.0601 33.8632 45.185 33.7383 45.2718 33.5879C45.3586 33.4375 45.4043 33.2669 45.4043 33.0932V24.9619C45.4043 24.7882 45.3586 24.6177 45.2718 24.4673C45.185 24.3169 45.0601 24.192 44.9097 24.1052ZM43.4258 32.5221L37.373 36.0167L31.3203 32.5221V25.5331L37.373 22.0385L43.4258 25.5331V32.5221Z" fill="white"/>
<path d="M35.2755 26.5579C34.845 26.5574 34.4219 26.6694 34.048 26.8828C33.6742 27.0963 33.3626 27.4038 33.1442 27.7748C32.9258 28.1457 32.8081 28.5674 32.8029 28.9978C32.7977 29.4283 32.9051 29.8527 33.1144 30.2288C33.3237 30.605 33.6278 30.92 33.9963 31.1424C34.3649 31.3649 34.7852 31.4872 35.2156 31.4971C35.646 31.5071 36.0715 31.4044 36.4499 31.1992C36.8284 30.994 37.1466 30.6934 37.3731 30.3273C37.6558 30.7842 38.0798 31.1365 38.5807 31.3307C39.0817 31.525 39.6323 31.5505 40.1491 31.4036C40.6659 31.2567 41.1207 30.9452 41.4445 30.5165C41.7684 30.0877 41.9436 29.5651 41.9436 29.0278C41.9436 28.4905 41.7684 27.9679 41.4445 27.5392C41.1207 27.1104 40.6659 26.799 40.1491 26.652C39.6323 26.5051 39.0817 26.5307 38.5807 26.7249C38.0798 26.9191 37.6558 27.2714 37.3731 27.7283C37.1523 27.3706 36.8436 27.0753 36.4765 26.8704C36.1094 26.6655 35.696 26.558 35.2755 26.5579Z" fill="white"/>
</g>
<defs>
<clipPath id="clip0_2091_7150">
<rect width="52" height="52" fill="white"/>
</clipPath>
</defs>
</svg>
