<svg width="52" height="52" viewBox="0 0 52 52" fill="none" xmlns="http://www.w3.org/2000/svg">
<g clip-path="url(#clip0_2091_7119)">
<path d="M37.2248 52C34.5967 52 32.3347 50.1475 31.8493 47.593L29.427 34.8595C29.1172 33.241 27.6763 32.0667 25.9993 32.0667C24.3223 32.0667 22.8815 33.241 22.5738 34.8595L20.1515 47.5908C19.664 50.1475 17.4042 52 14.7738 52C11.9723 52 9.63452 49.9243 9.33552 47.1705L8.38652 38.4518C8.04418 35.2972 7.37252 32.1728 6.38885 29.159L4.53852 23.4823C2.96552 18.6528 2.16602 13.6327 2.16602 8.55833C2.16602 3.83933 6.05302 0 10.8327 0C14.3535 0 17.7552 0.858 21.4147 2.62383C24.5 4.1145 27.5009 4.1145 30.584 2.62383C34.2435 0.858 37.6452 0 40.9819 0C45.9457 0 49.8327 3.83933 49.8327 8.55833C49.8327 13.6305 49.0332 18.6528 47.4602 23.4845L45.6099 29.159C44.6262 32.1728 43.9545 35.2972 43.6122 38.4518L42.6632 47.1705C42.3642 49.9243 40.0263 52 37.2248 52ZM25.9993 29.9C28.7164 29.9 31.0542 31.8153 31.5525 34.4565L33.9748 47.1878C34.2673 48.7197 35.6345 49.8333 37.2248 49.8333C38.917 49.8333 40.3297 48.5875 40.5095 46.9365L41.4585 38.2178C41.8182 34.918 42.5224 31.642 43.5515 28.4873L45.4019 22.8128C46.9034 18.2 47.666 13.403 47.666 8.55833C47.666 5.03317 44.7497 2.16667 41.166 2.16667C37.9767 2.16667 34.8848 2.95533 31.5265 4.576C27.8583 6.34617 24.1382 6.34617 20.4722 4.576C17.1139 2.95533 14.022 2.16667 11.0168 2.16667C7.24902 2.16667 4.33268 5.03317 4.33268 8.55833C4.33268 13.403 5.09535 18.2 6.59902 22.8128L8.44935 28.4873C9.47852 31.642 10.1827 34.9158 10.5402 38.2157L11.4892 46.9343C11.669 48.5875 13.0817 49.8333 14.7738 49.8333C16.3642 49.8333 17.7292 48.7197 18.0217 47.1857L20.444 34.4543C20.9445 31.8153 23.2824 29.9 25.9993 29.9ZM41.5863 47.0535H41.608H41.5863Z" fill="white" stroke="white"/>
<path d="M46.0417 23.8334H38.428C36.3632 23.8334 34.5085 22.6872 33.5833 20.8391L32.7275 19.1296C32.175 18.0224 31.0592 17.3334 29.822 17.3334H22.178C20.9408 17.3334 19.825 18.0224 19.2725 19.1296L18.4167 20.8391C17.4915 22.6872 15.6368 23.8334 13.572 23.8334H5.95833C5.36033 23.8334 4.875 23.3481 4.875 22.7501C4.875 22.1521 5.36033 21.6667 5.95833 21.6667H13.572C14.8092 21.6667 15.9228 20.9777 16.4775 19.8706L17.3333 18.1611C18.2585 16.3129 20.1132 15.1667 22.178 15.1667H29.822C31.8868 15.1667 33.7415 16.3129 34.6667 18.1611L35.5225 19.8706C36.075 20.9777 37.1908 21.6667 38.428 21.6667H46.0417C46.6397 21.6667 47.125 22.1521 47.125 22.7501C47.125 23.3481 46.6397 23.8334 46.0417 23.8334Z" fill="white" stroke="white"/>
</g>
<defs>
<clipPath id="clip0_2091_7119">
<rect width="52" height="52" fill="white"/>
</clipPath>
</defs>
</svg>
