<svg width="52" height="52" viewBox="0 0 52 52" fill="none" xmlns="http://www.w3.org/2000/svg">
<path d="M12.7076 33.5599L12.3712 32.7604C12.0153 31.9144 12.4707 30.9347 13.3743 30.7736C22.5642 29.1355 28.7445 38.259 31.2916 44.4731C31.6197 45.2737 31.0114 46.1183 30.1462 46.1183C29.6761 46.1183 29.2515 45.8547 28.9944 45.4612C26.139 41.0905 18.4771 37.9247 13.9789 36.5742C13.3028 36.3712 12.8292 35.7573 12.8292 35.0514V34.1625C12.8292 33.9555 12.7879 33.7506 12.7076 33.5599Z" fill="white"/>
<path fill-rule="evenodd" clip-rule="evenodd" d="M13.2446 20.7099C12.9977 22.3624 12.4222 24.52 10.4821 26.2206C10.2036 26.4647 9.86669 26.7391 9.52703 27.0157C9.49135 27.0448 9.45564 27.0738 9.41996 27.1029C9.03381 27.4176 8.63024 27.7485 8.23038 28.098C7.429 28.7983 6.72878 29.5004 6.28468 30.1657C6.33717 30.3018 6.48458 30.5419 6.81678 30.9116C7.08295 31.2077 7.38175 31.4967 7.72141 31.8252C7.8178 31.9185 7.91747 32.0149 8.02062 32.1155C8.44677 32.5313 8.95075 33.0374 9.32629 33.5761L6.77703 35.3534C6.59009 35.0852 6.2855 34.7644 5.85034 34.3398C5.77266 34.264 5.69018 34.1843 5.60451 34.1015C5.25492 33.7638 4.85216 33.3747 4.50542 32.9889C4.08045 32.516 3.59279 31.8939 3.33951 31.1588C3.05489 30.3327 3.07987 29.3884 3.65734 28.5049C4.33982 27.4608 5.31523 26.5184 6.18546 25.7579C6.62932 25.37 7.06947 25.0096 7.45673 24.6939C7.49004 24.6668 7.52282 24.6401 7.55509 24.6138C7.90857 24.3258 8.20016 24.0883 8.43363 23.8837C9.56161 22.8949 9.96794 21.6103 10.1711 20.2507L13.2446 20.7099Z" fill="white"/>
<path fill-rule="evenodd" clip-rule="evenodd" d="M42.2046 7.6204C39.6915 5.06409 35.6938 3.19687 29.7429 3.40374C23.9072 3.60661 19.9822 6.16089 17.398 9.26416C14.7753 12.4137 13.5286 16.1449 13.1925 18.5593L10.1145 18.1308C10.5183 15.2305 11.963 10.9345 15.0099 7.27555C18.0954 3.57038 22.8181 0.534954 29.6349 0.297976C36.3366 0.0650044 41.2179 2.18389 44.4207 5.44179C47.5938 8.66958 49.0007 12.8961 49.0007 16.6956C49.0007 23.8408 47.2646 30.1364 44.1036 36.1153C42.3633 39.407 42.5856 42.0375 43.2872 44.403C44.1298 47.244 42.3487 50.4674 39.0616 50.5818C36.3639 50.6757 32.8196 50.7749 29.7769 50.7795C28.2578 50.7819 26.8442 50.7607 25.7158 50.7016C25.153 50.6721 24.6403 50.6322 24.2109 50.5774C23.8287 50.5287 23.3584 50.4514 22.9773 50.2896C22.2085 49.9631 21.676 49.4881 21.3015 48.9239C21.0135 48.49 20.832 48.0064 20.7194 47.7064C20.7043 47.666 20.6904 47.6289 20.6776 47.5958C20.5482 47.2592 20.4611 47.0796 20.3408 46.9288C20.2359 46.7973 20.0477 46.6172 19.6288 46.4327C19.0113 46.1608 18.5155 46.3097 17.2311 46.6954L17.1988 46.7051C15.978 47.0716 14.2316 47.5262 12.2469 46.3463L12.2015 46.3194C11.5466 45.9301 10.9881 45.5981 10.5584 45.3016C10.1251 45.0025 9.66931 44.6394 9.3442 44.1383C8.98326 43.582 8.87976 43.0119 8.87287 42.4793C8.86711 42.0341 8.93134 41.5264 8.99272 41.0411C8.99583 41.0165 8.99894 40.992 9.00202 40.9675C9.0859 40.3027 8.86028 39.4356 8.44641 38.5642C8.25029 38.1513 8.03367 37.7833 7.84471 37.4989C7.75054 37.3571 7.6671 37.242 7.60121 37.157C7.54711 37.0873 7.51594 37.0522 7.50794 37.0432C7.50524 37.0402 7.50517 37.0401 7.50774 37.0427L9.69495 34.8351C10.0954 35.2318 10.7436 36.1573 11.2535 37.2309C11.7645 38.3068 12.2788 39.8221 12.0852 41.3565C12.0105 41.9489 11.9776 42.2368 11.9803 42.4391C11.9805 42.4541 11.9808 42.4669 11.9813 42.4775C12.0256 42.5204 12.1238 42.606 12.3237 42.7439C12.6558 42.9732 13.122 43.2513 13.8348 43.675C14.6248 44.1446 15.2368 44.0494 16.3052 43.7287C16.3893 43.7034 16.479 43.6753 16.5737 43.6457C17.5824 43.3301 19.1675 42.834 20.8812 43.5886C21.7109 43.954 22.3204 44.4268 22.7705 44.9912C23.2051 45.5362 23.4302 46.0954 23.5782 46.4804C23.5935 46.5201 23.6078 46.5574 23.6213 46.5926C23.758 46.949 23.8094 47.0828 23.8908 47.2055C23.932 47.2676 23.9881 47.3413 24.1842 47.4258C24.1812 47.4245 24.1796 47.4237 24.1797 47.4235C24.1804 47.4213 24.2954 47.4554 24.6041 47.4948C24.9261 47.5358 25.3538 47.5707 25.8784 47.5982C26.9249 47.653 28.2744 47.6742 29.7721 47.6719C32.7629 47.6673 36.2665 47.5695 38.9536 47.476C39.8897 47.4435 40.6668 46.4969 40.3078 45.2866C39.4355 42.3456 39.1473 38.841 41.3563 34.6628C44.2995 29.0958 45.8931 23.2957 45.8931 16.6956C45.8931 13.6227 44.7472 10.2068 42.2046 7.6204Z" fill="white"/>
<path fill-rule="evenodd" clip-rule="evenodd" d="M34.2865 19.0964C33.7965 19.8062 33.5077 20.6657 33.4516 21.1729L30.3628 20.8312C30.4793 19.7778 30.9675 18.4341 31.7291 17.3308C32.4693 16.2587 33.74 15.0418 35.5328 15.0417C36.9374 15.0417 38.267 15.5266 39.2028 16.6877C40.0938 17.7932 40.4532 19.2988 40.4532 21.0021C40.4532 21.4704 40.4344 21.9007 40.3972 22.2991C40.3109 23.2215 40.0148 24.0744 39.6953 24.8172C39.4819 25.3134 39.2215 25.8373 38.9873 26.3089C38.885 26.5148 38.7876 26.7108 38.7013 26.89C38.049 28.2449 37.838 29.0459 38.0514 29.7268C38.2161 30.2524 38.2648 30.9116 37.9427 31.5459C37.6233 32.1748 37.0784 32.5051 36.6217 32.6663C35.7769 32.9644 34.7934 32.8575 34.0233 32.6662C33.1991 32.4614 32.3183 32.0853 31.584 31.5543C30.8807 31.0457 30.0991 30.2354 29.908 29.1031C29.8153 28.5535 29.8536 27.978 30.036 27.396L33.0014 28.3255C32.9599 28.458 32.9643 28.538 32.9724 28.586C32.9719 28.5835 32.9721 28.5839 32.9734 28.587C32.9828 28.61 33.0537 28.782 33.4051 29.0361C33.7729 29.3021 34.2772 29.5271 34.7725 29.6502C34.8123 29.6601 34.8507 29.669 34.8876 29.677C34.734 28.0868 35.3762 26.6327 35.9013 25.542C36.0248 25.2853 36.1423 25.0493 36.2544 24.8239C36.467 24.3967 36.6605 24.0078 36.8405 23.5893C37.1027 22.9798 37.2601 22.4684 37.303 22.0096C37.33 21.7207 37.3456 21.3881 37.3456 21.0021C37.3456 19.6759 37.0575 18.9782 36.7832 18.6378C36.5537 18.3531 36.1999 18.1494 35.5328 18.1494C35.2538 18.1494 34.798 18.3554 34.2865 19.0964Z" fill="white"/>
</svg>
