<svg width="20" height="23" viewBox="0 0 20 23" fill="none" xmlns="http://www.w3.org/2000/svg">
<path d="M19.9924 10.6246C19.9924 8.89101 18.5745 7.47314 16.8409 7.47314C15.1073 7.47314 13.6832 8.88482 13.6832 10.6246C13.6832 12.1849 14.8163 13.4789 16.3084 13.7266V17.0328C16.3084 19.6085 14.2157 21.7012 11.64 21.7012C9.06438 21.7012 6.97165 19.6085 6.97165 17.0328L6.95927 13.2436C8.179 13.0827 9.37396 12.3644 10.4389 11.1447C10.5937 10.9652 10.6432 10.7361 10.6184 10.5132C12.0053 8.67429 12.866 6.17912 12.866 4.25356C12.866 1.28783 11.5348 0.978252 9.33681 0.476739L9.33061 0.470542C9.1944 0.198115 8.92197 0 8.59382 0C8.12946 0 7.75178 0.377686 7.75178 0.835858C7.75178 1.30022 8.12946 1.67789 8.59382 1.67789C8.77956 1.67789 8.95292 1.6036 9.08913 1.49216L9.10771 1.49834C11.2438 1.98746 11.8196 2.12369 11.8196 4.25356C11.8196 5.94385 11.0209 8.20994 9.79497 9.8445C9.59065 9.85688 9.39252 9.94356 9.24392 10.1107C8.61858 10.8351 7.62175 11.702 6.43917 11.702C5.26278 11.702 4.26595 10.8475 3.64061 10.1231C3.49201 9.95595 3.2877 9.86926 3.08958 9.85687C1.86366 8.21612 1.06494 5.95004 1.06494 4.25976C1.06494 2.12369 1.63456 1.99366 3.77682 1.50453L3.78302 1.49834C3.93162 1.60978 4.0926 1.68409 4.28453 1.68409C4.7489 1.68409 5.12657 1.3064 5.12657 0.842036C5.12657 0.383865 4.7489 0.00617866 4.28453 0.00617866C3.95019 0.00617866 3.67775 0.204313 3.53535 0.476739C1.33736 0.984443 0 1.28784 0 4.25976C0 6.18532 0.866814 8.69287 2.26609 10.5317C2.24133 10.7546 2.28467 10.9837 2.44565 11.1633C3.5044 12.3768 4.69318 13.0889 5.9129 13.2498V17.039C5.9129 20.1967 8.48857 22.76 11.64 22.76C14.7977 22.76 17.3548 20.1905 17.3548 17.039V13.7328C18.847 13.4727 19.9924 12.1849 19.9924 10.6246ZM16.8347 12.7297C15.6769 12.7297 14.7296 11.7886 14.7296 10.6246C14.7296 9.46682 15.6769 8.5257 16.8347 8.5257C17.9925 8.5257 18.9336 9.46682 18.9336 10.6246C18.9336 11.7824 17.9925 12.7297 16.8347 12.7297Z" fill="#1B406C"/>
<path d="M16.8347 9.052C15.9679 9.052 15.2559 9.75784 15.2559 10.6247C15.2559 11.4977 15.9617 12.2035 16.8347 12.2035C17.7015 12.2035 18.4135 11.5038 18.4135 10.6247C18.4135 9.75165 17.7077 9.052 16.8347 9.052Z" fill="#1B406C"/>
</svg>
