<svg width="51" height="41" viewBox="0 0 51 41" fill="none" xmlns="http://www.w3.org/2000/svg">
<path d="M43.3941 20.3967H41.9372V18.9398C41.9372 18.1319 41.2882 17.4829 40.4803 17.4829C39.6724 17.4829 39.0234 18.1319 39.0234 18.9398V20.3967H37.5665C36.7586 20.3967 36.1096 21.0457 36.1096 21.8537C36.1096 22.6616 36.7586 23.3106 37.5665 23.3106H39.0234V24.7675C39.0234 25.5754 39.6724 26.2244 40.4803 26.2244C41.2882 26.2244 41.9372 25.5754 41.9372 24.7675V23.3106H43.3941C44.202 23.3106 44.8511 22.6616 44.8511 21.8537C44.8511 21.059 44.1888 20.3967 43.3941 20.3967ZM47.6986 14.6618C47.7384 14.2115 47.7648 13.7744 47.7648 13.3241C47.7648 6.01307 42.4935 0 35.2751 0C31.3812 0 28.0038 1.85426 25.5006 5.35085C25.0503 5.98659 24.6529 6.62232 24.3351 7.21833C24.0172 6.62232 23.6199 5.98659 23.1696 5.35085C20.6664 1.85426 17.289 0 13.395 0C6.16347 0 0.905273 6.01307 0.905273 13.3241C0.905273 16.7545 2.11058 19.9597 4.68005 23.3238H2.36223C1.55431 23.3238 0.905273 23.9728 0.905273 24.7807C0.905273 25.5887 1.55431 26.2376 2.36223 26.2376H7.20974C9.95138 29.1117 13.5142 32.105 17.5274 35.4824C19.3949 37.0585 21.3153 38.6744 23.3682 40.4624C23.6464 40.7008 23.9775 40.82 24.3219 40.82C24.6662 40.82 24.9973 40.7008 25.2755 40.4624C27.3549 38.6611 29.3151 37.0188 31.2223 35.4427C33.0103 33.946 34.7189 32.5289 36.2685 31.1779C37.5532 31.7607 38.9704 32.0785 40.4538 32.0785C46.0828 32.0785 50.6654 27.4959 50.6654 21.8669C50.6787 19.0458 49.5396 16.5028 47.6986 14.6618ZM3.83237 13.3109C3.83237 7.37727 7.95143 2.90058 13.4082 2.90058C16.3353 2.90058 18.7989 4.26477 20.7591 6.96668C22.3087 9.09906 22.9311 11.2977 22.9444 11.3109C23.1166 11.9467 23.6993 12.3705 24.3483 12.3838C24.9973 12.3838 25.5801 11.9467 25.7522 11.3242C25.7522 11.2977 26.388 9.11232 27.9376 6.97993C29.8846 4.27803 32.3613 2.91382 35.2884 2.91382C40.5333 2.91382 44.5332 7.04616 44.8378 12.6354C43.5134 12.0129 42.0431 11.6553 40.4803 11.6553C35.3414 11.6553 31.0898 15.4697 30.3746 20.3967H25.0636C24.3881 20.3967 23.8053 20.8471 23.6464 21.4961L22.6795 25.39L18.428 12.6486C18.2293 12.0394 17.6333 11.6288 16.9843 11.6553C16.3353 11.6818 15.7791 12.1321 15.6201 12.7546L12.9845 23.3106H8.48125C5.5277 20.0127 3.83237 16.8869 3.83237 13.3109ZM29.3681 33.1911C27.7522 34.542 26.0833 35.9327 24.3351 37.4294C22.6265 35.9592 20.9974 34.5818 19.4081 33.2573C16.3486 30.6879 13.6334 28.3965 11.3553 26.2376H14.1235C14.799 26.2376 15.3817 25.7873 15.5407 25.1383L17.2359 18.3306L21.4875 31.0719C21.6862 31.6679 22.2424 32.0653 22.8649 32.0653C22.8782 32.0653 22.9047 32.0653 22.9179 32.0653C23.5669 32.0388 24.1232 31.5885 24.2821 30.966L26.1893 23.3238H30.3614C30.719 25.7741 31.9375 27.9595 33.7255 29.5223C32.3746 30.6879 30.9045 31.9063 29.3681 33.1911ZM40.4671 29.1515C36.454 29.1515 33.1825 25.88 33.1825 21.8669C33.1825 17.8538 36.454 14.5823 40.4671 14.5823C44.4802 14.5823 47.7517 17.8538 47.7517 21.8669C47.7649 25.88 44.4935 29.1515 40.4671 29.1515Z" fill="white"/>
</svg>
