<svg width="52" height="52" viewBox="0 0 52 52" fill="none" xmlns="http://www.w3.org/2000/svg">
<path d="M30.5703 7.22641V0H21.4297V7.22324C19.0807 8.33646 17.1752 10.2919 16.1469 12.7778C14.9412 13.3301 13.874 14.166 13.0278 15.2479C10.5514 18.4138 9.24219 22.6588 9.24219 27.5234C9.24219 33.2074 10.9541 39.1817 13.9391 43.9143C16.6721 48.2477 20.8568 52 26 52C31.144 52 35.3287 48.2466 38.0609 43.9143C41.0459 39.1817 42.7578 33.2074 42.7578 27.5234C42.7578 24.079 42.1314 21.0167 40.8928 18.3828H42.7578V9.24219H33.4617C32.6103 8.40866 31.6316 7.72986 30.5703 7.22641ZM24.4766 3.04688H27.5234V6.306C27.022 6.2334 26.513 6.19531 26 6.19531C25.4846 6.19531 24.976 6.23419 24.4766 6.306V3.04688ZM26 9.24219C27.2025 9.24219 28.3748 9.52863 29.4273 10.0594C27.6861 10.8795 26.2642 12.2668 25.3978 13.9815C23.912 12.7977 22.0652 12.0915 20.1213 12.0117C21.5388 10.2931 23.6752 9.24219 26 9.24219ZM39.7109 15.3359H35.1406C32.6206 15.3359 30.5703 17.3862 30.5703 19.9062C30.5703 25.1193 27.9809 29.9582 23.6434 32.8495L22.1081 33.8731L23.7982 36.4082L25.3335 35.3846C30.5203 31.9267 33.6172 26.1404 33.6172 19.9062C33.6172 19.0664 34.3008 18.3828 35.1406 18.3828H37.4369C38.9449 20.864 39.7109 23.9334 39.7109 27.5234C39.7109 32.5726 38.1308 38.0923 35.4838 42.2889C32.8126 46.5244 29.3559 48.9531 26 48.9531C22.6441 48.9531 19.1874 46.5244 16.5162 42.2889C13.8692 38.0923 12.2891 32.5726 12.2891 27.5234C12.2891 23.3455 13.3745 19.7499 15.4276 17.1248C16.5103 15.741 18.1694 14.9876 19.9792 15.0551C21.759 15.1225 23.4157 15.9806 24.4904 17.3704C24.4817 17.5287 24.4766 17.6877 24.4766 17.8484C24.4766 20.2451 22.9492 22.3644 20.6755 23.1221L16.3777 24.5547L17.341 27.4453L21.6388 26.0127C25.1585 24.8392 27.5234 21.5582 27.5234 17.848C27.5234 14.7829 30.0173 12.2891 33.0824 12.2891H39.7109V15.3359Z" fill="white"/>
</svg>
