<svg width="44" height="37" viewBox="0 0 44 37" fill="none" xmlns="http://www.w3.org/2000/svg">
<path d="M37.5703 18.0356H36.2821V16.7474C36.2821 16.033 35.7082 15.4591 34.9938 15.4591C34.2794 15.4591 33.7056 16.033 33.7056 16.7474V18.0356H32.4173C31.7029 18.0356 31.129 18.6095 31.129 19.3239C31.129 20.0383 31.7029 20.6121 32.4173 20.6121H33.7056V21.9004C33.7056 22.6148 34.2794 23.1886 34.9938 23.1886C35.7082 23.1886 36.2821 22.6148 36.2821 21.9004V20.6121H37.5703C38.2847 20.6121 38.8586 20.0383 38.8586 19.3239C38.8586 18.6212 38.273 18.0356 37.5703 18.0356ZM41.3765 12.9646C41.4117 12.5664 41.4351 12.1799 41.4351 11.7817C41.4351 5.31699 36.7739 0 30.3912 0C26.948 0 23.9616 1.63961 21.7482 4.73143C21.35 5.29358 20.9986 5.85572 20.7175 6.38273C20.4365 5.85572 20.0852 5.29358 19.687 4.73143C17.4735 1.63961 14.4871 0 11.044 0C4.64951 0 0 5.31699 0 11.7817C0 14.815 1.06578 17.6491 3.3378 20.6239H1.2883C0.573904 20.6239 0 21.1977 0 21.9121C0 22.6265 0.573904 23.2004 1.2883 23.2004H5.57466C7.99893 25.7418 11.1494 28.3885 14.6979 31.375C16.3492 32.7686 18.0474 34.1974 19.8626 35.7784C20.1086 35.9893 20.4014 36.0947 20.7059 36.0947C21.0104 36.0947 21.3031 35.9893 21.5491 35.7784C23.3878 34.1857 25.1211 32.7335 26.8075 31.3398C28.3886 30.0164 29.8993 28.7633 31.2696 27.5687C32.4056 28.0841 33.6587 28.3651 34.9704 28.3651C39.9478 28.3651 43.9999 24.313 43.9999 19.3356C44.0116 16.841 43.0044 14.5925 41.3765 12.9646ZM2.58825 11.77C2.58825 6.52328 6.23049 2.56481 11.0556 2.56481C13.6438 2.56481 15.8222 3.77108 17.5555 6.16021C18.9258 8.04576 19.4761 9.98987 19.4879 10.0016C19.6401 10.5637 20.1554 10.9385 20.7293 10.9502C21.3031 10.9502 21.8184 10.5637 21.9707 10.0133C21.9707 9.98987 22.5329 8.05748 23.9031 6.17194C25.6247 3.7828 27.8147 2.57651 30.4029 2.57651C35.0407 2.57651 38.5775 6.2305 38.8469 11.1727C37.6758 10.6223 36.3757 10.3061 34.9938 10.3061C30.4498 10.3061 26.6904 13.679 26.058 18.0356H21.3617C20.7644 18.0356 20.2491 18.4338 20.1086 19.0077L19.2536 22.4508L15.4943 11.1844C15.3186 10.6457 14.7916 10.2827 14.2177 10.3061C13.6438 10.3295 13.152 10.7277 13.0115 11.2781L10.6809 20.6121H6.69898C4.08733 17.696 2.58825 14.9321 2.58825 11.77ZM25.1679 29.3489C23.7392 30.5434 22.2635 31.7732 20.7175 33.0965C19.2068 31.7966 17.7663 30.5786 16.3609 29.4075C13.6556 27.1354 11.2547 25.1093 9.24035 23.2004H11.6881C12.2854 23.2004 12.8007 22.8022 12.9412 22.2283L14.4402 16.2086L18.1996 27.475C18.3753 28.0021 18.8672 28.3534 19.4176 28.3534C19.4293 28.3534 19.4528 28.3534 19.4645 28.3534C20.0383 28.33 20.5302 27.9318 20.6707 27.3814L22.3572 20.6239H26.0463C26.3625 22.7905 27.4399 24.7229 29.021 26.1048C27.8264 27.1354 26.5265 28.2129 25.1679 29.3489ZM34.9821 25.7769C31.4336 25.7769 28.5409 22.8842 28.5409 19.3356C28.5409 15.787 31.4336 12.8943 34.9821 12.8943C38.5307 12.8943 41.4234 15.787 41.4234 19.3356C41.4352 22.8842 38.5424 25.7769 34.9821 25.7769Z" fill="white"/>
</svg>
