<svg width="52" height="52" viewBox="0 0 52 52" fill="none" xmlns="http://www.w3.org/2000/svg">
<path d="M39.3379 15.4375C39.82 15.4375 40.2913 15.2945 40.6921 15.0267C41.0929 14.7589 41.4054 14.3782 41.5899 13.9328C41.7743 13.4874 41.8226 12.9973 41.7286 12.5245C41.6345 12.0516 41.4024 11.6173 41.0615 11.2764C40.7206 10.9355 40.2863 10.7034 39.8134 10.6093C39.3406 10.5153 38.8505 10.5636 38.4051 10.748C37.9597 10.9325 37.579 11.245 37.3112 11.6458C37.0433 12.0466 36.9004 12.5179 36.9004 13C36.9004 13.6465 37.1572 14.2665 37.6143 14.7236C38.0714 15.1807 38.6914 15.4375 39.3379 15.4375ZM39.3379 12.1875H40.1504C40.3659 12.1875 40.5725 12.2731 40.7249 12.4255C40.8773 12.5778 40.9629 12.7845 40.9629 13C40.9629 13.2155 40.8773 13.4222 40.7249 13.5745C40.5725 13.7269 40.3659 13.8125 40.1504 13.8125H39.3379C39.1224 13.8125 38.9157 13.7269 38.7634 13.5745C38.611 13.4222 38.5254 13.2155 38.5254 13C38.5254 12.7845 38.611 12.5778 38.7634 12.4255C38.9157 12.2731 39.1224 12.1875 39.3379 12.1875Z" fill="white"/>
<path d="M4.30635 45.1319C3.91067 45.4569 3.86029 45.4999 3.3996 45.4999H2.4376C2.22212 45.4999 2.01545 45.5855 1.86308 45.7379C1.71071 45.8903 1.6251 46.097 1.6251 46.3124C1.6251 46.5279 1.71071 46.7346 1.86308 46.887C2.01545 47.0393 2.22212 47.1249 2.4376 47.1249H3.2501V49.5624C3.2501 49.7779 3.33571 49.9846 3.48808 50.137C3.64045 50.2893 3.84712 50.3749 4.0626 50.3749C4.27809 50.3749 4.48476 50.2893 4.63713 50.137C4.7895 49.9846 4.8751 49.7779 4.8751 49.5624V46.7398C5.03829 46.6309 5.19484 46.5123 5.34392 46.3848C5.4536 46.2946 5.5771 46.1922 5.72823 46.0784L7.23623 44.9474L8.70442 46.4156L8.46067 46.7878C8.29217 47.0402 8.03729 47.2225 7.7439 47.3003C7.45051 47.3781 7.13881 47.3461 6.86735 47.2103C6.77186 47.1626 6.6679 47.1341 6.56143 47.1266C6.45495 47.1191 6.34803 47.1326 6.24678 47.1664C6.14553 47.2002 6.05193 47.2536 5.97132 47.3236C5.89071 47.3936 5.82467 47.4788 5.77698 47.5743C5.68066 47.7671 5.66489 47.9903 5.73316 48.1948C5.80142 48.3993 5.94812 48.5683 6.14098 48.6646C6.76676 48.977 7.48504 49.0504 8.16104 48.8709C8.83705 48.6914 9.42432 48.2713 9.81267 47.6896L9.86223 47.6157C10.3137 48.1641 10.5612 48.8521 10.5626 49.5624C10.5626 49.7779 10.6482 49.9846 10.8006 50.137C10.953 50.2893 11.1596 50.3749 11.3751 50.3749C11.5906 50.3749 11.7973 50.2893 11.9496 50.137C12.102 49.9846 12.1876 49.7779 12.1876 49.5624C12.1894 48.9403 12.0678 48.324 11.8297 47.7493C11.5916 47.1745 11.2419 46.6527 10.8007 46.2141L9.71679 45.1302C11.1186 44.7029 12.4699 44.1245 13.7468 43.4053C14.1786 43.721 14.7031 43.8843 15.2378 43.8696C15.7725 43.8549 16.2872 43.663 16.701 43.3241L20.2427 40.4121C20.5907 40.1253 20.8512 39.7467 20.9949 39.3193C21.1385 38.8919 21.1594 38.4328 21.0552 37.9941C21.5969 37.4963 22.1342 36.9876 22.6672 36.4682C23.1192 36.6461 23.6144 36.6835 24.0879 36.5755C24.5615 36.4675 24.9915 36.2191 25.3217 35.8629L28.4319 32.4999C28.773 32.13 28.9897 31.6625 29.0516 31.1632C29.1135 30.6638 29.0176 30.1576 28.7772 29.7155C29.1258 29.2889 29.467 28.8656 29.7969 28.4488C30.2851 28.6304 30.8189 28.6489 31.3185 28.5017C31.8181 28.3545 32.2566 28.0495 32.5684 27.6323L35.3049 23.9541C35.6255 23.5217 35.7924 22.9945 35.7788 22.4564C35.7653 21.9182 35.5721 21.4001 35.2301 20.9844C35.6981 20.2832 36.0345 19.7599 36.2376 19.4406C36.7502 19.7791 37.2276 20.1681 37.6627 20.6017L38.5248 21.4638V22.2503L37.3491 22.8377C37.1562 22.934 37.0095 23.103 36.9413 23.3075C36.873 23.512 36.8888 23.7352 36.9851 23.9281C37.0814 24.1209 37.2504 24.2676 37.4549 24.3359C37.6594 24.4042 37.8826 24.3884 38.0755 24.2921L39.3373 23.6608L40.5991 24.2921C40.6946 24.3398 40.7986 24.3682 40.905 24.3757C41.0115 24.3832 41.1184 24.3697 41.2197 24.3359C41.3209 24.3021 41.4145 24.2487 41.4951 24.1787C41.5757 24.1087 41.6418 24.0236 41.6895 23.9281C41.7372 23.8326 41.7656 23.7286 41.7731 23.6221C41.7806 23.5157 41.7671 23.4087 41.7333 23.3075C41.6995 23.2062 41.6461 23.1126 41.5761 23.032C41.5061 22.9514 41.421 22.8854 41.3255 22.8377L40.1498 22.2503V21.4638L41.0127 20.6017C42.2988 19.3122 43.939 18.4339 45.7252 18.0781L46.4865 17.9253L47.2681 18.3316L47.2462 19.6462C47.2444 19.7529 47.2638 19.8589 47.303 19.9581C47.3423 20.0574 47.4007 20.1479 47.4749 20.2246C47.5492 20.3012 47.6378 20.3625 47.7357 20.4049C47.8336 20.4473 47.939 20.47 48.0457 20.4717H48.0587C48.2718 20.4717 48.4764 20.388 48.6284 20.2386C48.7803 20.0892 48.8675 19.8861 48.8712 19.673L48.8947 18.2625L50.0371 17.4346C50.1249 17.3725 50.1995 17.2936 50.2565 17.2025C50.3136 17.1114 50.352 17.0099 50.3696 16.9038C50.3871 16.7977 50.3834 16.6892 50.3588 16.5846C50.3341 16.4799 50.2888 16.3813 50.2257 16.2942C50.1626 16.2072 50.0829 16.1335 49.9911 16.0775C49.8993 16.0216 49.7973 15.9844 49.691 15.9681C49.5848 15.9518 49.4763 15.9567 49.372 15.9827C49.2677 16.0086 49.1695 16.055 49.0832 16.1191L48.0197 16.8902L47.3201 16.5262C46.4834 14.2832 46.4728 11.8156 47.29 9.5655L48.0018 9.23238L49.0329 10.0449C49.1156 10.1167 49.2121 10.171 49.3163 10.2045C49.4206 10.2381 49.5306 10.2502 49.6397 10.2402C49.7488 10.2301 49.8548 10.1981 49.9512 10.1461C50.0476 10.094 50.1325 10.023 50.2008 9.93732C50.269 9.85162 50.3192 9.753 50.3484 9.64739C50.3776 9.54179 50.3851 9.43137 50.3705 9.32279C50.3559 9.2142 50.3195 9.10969 50.2634 9.01555C50.2074 8.9214 50.1329 8.83955 50.0444 8.77494L48.9386 7.89825L48.976 6.48775C48.9817 6.27238 48.9016 6.06357 48.7533 5.90724C48.6051 5.75091 48.4008 5.65987 48.1854 5.65413H48.1627C47.9508 5.65405 47.7473 5.73675 47.5955 5.88459C47.4437 6.03242 47.3557 6.2337 47.3502 6.4455L47.3152 7.75931L46.5799 8.103L45.9153 7.99169C43.6351 7.6143 41.578 6.39941 40.1465 4.58488V3.75206L41.3255 3.16869C41.5183 3.07237 41.665 2.90337 41.7333 2.69889C41.8016 2.4944 41.7858 2.27118 41.6895 2.07831C41.5932 1.88545 41.4242 1.73875 41.2197 1.67049C41.0152 1.60223 40.792 1.61799 40.5991 1.71431L39.3373 2.34563L38.0755 1.71431C37.8826 1.61799 37.6594 1.60223 37.4549 1.67049C37.2504 1.73875 37.0814 1.88545 36.9851 2.07831C36.8888 2.27118 36.873 2.4944 36.9413 2.69889C37.0095 2.90337 37.1562 3.07237 37.3491 3.16869L38.5248 3.75613V4.58406C37.0936 6.3989 35.0363 7.61386 32.756 7.99088L32.1134 8.09813L31.2911 7.73819L31.2253 6.42519C31.22 6.31849 31.1937 6.21389 31.1479 6.11735C31.1021 6.02082 31.0378 5.93424 30.9586 5.86256C30.8794 5.79089 30.7868 5.73552 30.6862 5.69962C30.5856 5.66371 30.4789 5.64798 30.3722 5.65331C30.2655 5.65865 30.1609 5.68495 30.0643 5.73071C29.9678 5.77647 29.8812 5.8408 29.8095 5.92002C29.7379 5.99924 29.6825 6.0918 29.6466 6.19242C29.6107 6.29304 29.595 6.39974 29.6003 6.50644L29.671 7.91531L28.5863 8.81719C28.5043 8.88548 28.4366 8.96925 28.3869 9.06371C28.3373 9.15818 28.3068 9.2615 28.2971 9.36777C28.2874 9.47404 28.2987 9.58117 28.3304 9.68306C28.3621 9.78495 28.4136 9.8796 28.4819 9.9616C28.5502 10.0436 28.6339 10.1113 28.7284 10.161C28.8229 10.2106 28.9262 10.2411 29.0325 10.2508C29.1387 10.2605 29.2459 10.2492 29.3478 10.2175C29.4496 10.1858 29.5443 10.1343 29.6263 10.066L30.6362 9.22506L31.3724 9.55006C32.1943 11.7996 32.1868 14.2686 31.3512 16.5132L30.6663 16.8772L29.5962 16.1134C29.5094 16.0514 29.4112 16.0072 29.3072 15.9831C29.2032 15.9591 29.0956 15.9558 28.9903 15.9734C28.8851 15.9909 28.7843 16.0291 28.6938 16.0856C28.6033 16.1421 28.5248 16.2159 28.4628 16.3028C28.4008 16.3896 28.3565 16.4878 28.3325 16.5918C28.3085 16.6957 28.3051 16.8034 28.3227 16.9087C28.3403 17.0139 28.3784 17.1147 28.4349 17.2052C28.4915 17.2957 28.5653 17.3742 28.6521 17.4362L29.8002 18.2552L29.8335 19.6657C29.8386 19.8778 29.9264 20.0795 30.0782 20.2276C30.2301 20.3758 30.4338 20.4588 30.646 20.4587H30.6647C30.7714 20.4563 30.8766 20.4328 30.9742 20.3897C31.0719 20.3467 31.1601 20.2847 31.2338 20.2076C31.3075 20.1304 31.3653 20.0394 31.4038 19.9399C31.4424 19.8404 31.461 19.7342 31.4585 19.6275L31.4276 18.3129L32.1654 17.9213L32.9429 18.0764C33.5809 18.2046 34.2034 18.3998 34.8003 18.659C34.5939 18.984 34.2624 19.4878 33.8204 20.1434C33.3738 20.0549 32.9112 20.0947 32.4862 20.258C32.0612 20.4213 31.6911 20.7016 31.4187 21.0664L28.6822 24.7446C28.4021 25.1218 28.2381 25.5725 28.2101 26.0415C28.1821 26.5104 28.2914 26.9774 28.5245 27.3853C28.2039 27.7899 27.8748 28.1988 27.5374 28.6121C27.0848 28.4325 26.5886 28.3939 26.1137 28.5014C25.6389 28.6088 25.2076 28.8573 24.8764 29.2142L21.7686 32.5812C21.4261 32.9527 21.2091 33.4224 21.1482 33.9239C21.0872 34.4255 21.1854 34.9335 21.429 35.3762C21.0043 35.7949 20.5745 36.2055 20.1395 36.6079C19.7075 36.2873 19.1807 36.1202 18.6428 36.1331C18.1049 36.1461 17.5868 36.3384 17.1707 36.6794L13.629 39.5906C13.2736 39.8838 13.0095 40.2725 12.868 40.7109C12.7264 41.1493 12.7134 41.6191 12.8303 42.0647C11.4345 42.8459 9.93636 43.4284 8.37942 43.7953L7.52142 42.9341C6.8032 42.2191 5.8601 41.7741 4.8516 41.6743C3.84309 41.5745 2.83107 41.8261 1.98667 42.3864C1.80738 42.506 1.68295 42.692 1.64074 42.9033C1.59853 43.1146 1.64201 43.3341 1.7616 43.5134C1.8812 43.6927 2.06712 43.8171 2.27846 43.8593C2.4898 43.9015 2.70926 43.858 2.88854 43.7384C3.3593 43.4269 3.91407 43.2668 4.47843 43.2796C5.04279 43.2923 5.58974 43.4774 6.04592 43.8099L4.75404 44.7793C4.57935 44.9093 4.43635 45.0271 4.30635 45.1319ZM39.3373 8.93744C40.1408 8.93744 40.9262 9.1757 41.5943 9.62209C42.2624 10.0685 42.7831 10.703 43.0906 11.4453C43.398 12.1876 43.4785 13.0044 43.3217 13.7925C43.165 14.5805 42.7781 15.3044 42.2099 15.8726C41.6418 16.4407 40.9179 16.8276 40.1298 16.9844C39.3418 17.1411 38.525 17.0607 37.7826 16.7532C37.0403 16.4457 36.4058 15.925 35.9594 15.2569C35.5131 14.5889 35.2748 13.8034 35.2748 12.9999C35.2761 11.9229 35.7045 10.8903 36.4661 10.1287C37.2277 9.36716 38.2602 8.93873 39.3373 8.93744Z" fill="white"/>
</svg>
