<svg width="52" height="52" viewBox="0 0 52 52" fill="none" xmlns="http://www.w3.org/2000/svg">
<g clip-path="url(#clip0_2091_7165)">
<path d="M42.4858 9.51459C37.932 4.96063 30.5221 4.96063 25.9682 9.51459C21.4142 14.0685 21.4142 21.4782 25.9682 26.0321C28.2451 28.309 31.236 29.4476 34.227 29.4476C37.2179 29.4476 40.2088 28.3091 42.4857 26.0321C47.0397 21.4782 47.0397 14.0685 42.4858 9.51459ZM28.1227 21.7232C28.4105 21.4355 28.7932 21.2771 29.1999 21.2771C29.6069 21.2771 29.9895 21.4355 30.2772 21.7232C30.5649 22.0109 30.7235 22.3935 30.7235 22.8005C30.7235 23.2073 30.5649 23.5899 30.2772 23.8777C29.6832 24.4716 28.7167 24.4717 28.1226 23.8777C27.5288 23.2837 27.5288 22.3173 28.1227 21.7232ZM40.3315 23.8777C38.1501 26.0588 35.0826 26.8247 32.2774 26.1789C32.3296 26.1312 32.3813 26.0826 32.4317 26.0321C34.2138 24.2502 34.2138 21.3507 32.4317 19.5688C30.6497 17.7868 27.7501 17.7869 25.9683 19.5688C25.9178 19.6192 25.8692 19.6709 25.8215 19.7231C25.1756 16.9178 25.9414 13.8503 28.1227 11.669C29.8059 9.98594 32.016 9.1446 34.2271 9.1446C36.4375 9.1446 38.6486 9.98635 40.3314 11.669C43.6973 15.035 43.6973 20.5118 40.3315 23.8777Z" fill="white"/>
<path d="M37.459 21.0923C38.3004 21.0923 38.9824 20.4102 38.9824 19.5688C38.9824 18.7275 38.3004 18.0454 37.459 18.0454C36.6176 18.0454 35.9355 18.7275 35.9355 19.5688C35.9355 20.4102 36.6176 21.0923 37.459 21.0923Z" fill="white"/>
<path d="M32.4316 16.0652C33.273 16.0652 33.9551 15.3831 33.9551 14.5417C33.9551 13.7004 33.273 13.0183 32.4316 13.0183C31.5903 13.0183 30.9082 13.7004 30.9082 14.5417C30.9082 15.3831 31.5903 16.0652 32.4316 16.0652Z" fill="white"/>
<path d="M46.8009 5.2066C43.4428 1.84905 38.9781 0 34.2292 0C29.4802 0 25.0154 1.84905 21.6575 5.2066L5.19896 21.6624C-1.73299 28.5934 -1.73299 39.8709 5.19896 46.8018C8.66508 50.2672 13.2178 52 17.7707 52C22.3235 52 26.8764 50.2672 30.3424 46.8018L46.8009 30.3461C53.7329 23.415 53.7329 12.1375 46.8009 5.2066ZM6.9049 24.2877L13.3319 48.2736C11.1436 47.5861 9.08515 46.3777 7.35412 44.647C1.76462 39.0583 1.61543 30.0595 6.9049 24.2877ZM16.6572 48.9118L9.38821 21.7833L14.6079 16.5645L23.0284 47.99C20.9877 48.7661 18.808 49.0734 16.6572 48.9118ZM28.1873 44.647C27.4477 45.3864 26.6481 46.0299 25.8046 46.5788L22.7843 35.3072L34.4123 38.4229L28.1873 44.647ZM44.6458 28.1912L36.9005 35.9352L21.8738 31.9089L17.0958 14.0771L23.8125 7.36135C26.5949 4.57935 30.2943 3.04728 34.2292 3.04728C38.1641 3.04728 41.8634 4.57935 44.6458 7.36135C50.3895 13.1042 50.3895 22.4485 44.6458 28.1912Z" fill="white"/>
</g>
<defs>
<clipPath id="clip0_2091_7165">
<rect width="52" height="52" fill="white"/>
</clipPath>
</defs>
</svg>
