<svg width="52" height="52" viewBox="0 0 52 52" fill="none" xmlns="http://www.w3.org/2000/svg">
<path fill-rule="evenodd" clip-rule="evenodd" d="M16.529 13.8235C19.5177 13.8235 21.9407 11.4006 21.9407 8.41177C21.9407 5.42293 19.5177 3 16.529 3C13.5402 3 11.1172 5.42293 11.1172 8.41177C11.1172 11.4006 13.5402 13.8235 16.529 13.8235ZM16.529 11.1177C18.0234 11.1177 19.2348 9.90623 19.2348 8.41177C19.2348 6.91735 18.0234 5.70589 16.529 5.70589C15.0345 5.70589 13.8231 6.91735 13.8231 8.41177C13.8231 9.90623 15.0345 11.1177 16.529 11.1177Z" fill="white"/>
<path d="M21.9404 44.9414V39.433L24.6463 43.2985V44.9414C24.6463 47.1406 22.8946 48.9399 20.6961 48.9988C19.2486 49.0374 17.9541 48.3125 17.2051 47.1859C16.456 48.3125 15.1615 49.0374 13.714 48.9988C11.5154 48.9399 9.76379 47.1406 9.76379 44.9414V29.5747C8.97895 29.9976 8.05016 30.1659 7.10513 29.9918C4.90063 29.5855 3.4429 27.469 3.84919 25.2645C4.16521 23.5498 4.48544 22.0526 4.88856 20.824C5.28612 19.6123 5.89008 18.2514 7.02064 17.1604C8.25337 15.9707 9.67234 15.5149 10.8847 15.3291C11.8852 15.1759 13.0003 15.1763 13.9199 15.1765H13.971L17.7065 17.8826L13.9705 17.8824C12.991 17.8822 12.0707 17.8849 11.2945 18.0038C10.429 18.1365 9.60185 18.4298 8.89967 19.1075C8.23037 19.7533 7.8 20.6301 7.4596 21.6676C7.11703 22.7115 6.82331 24.0563 6.51027 25.7549C6.37484 26.4897 6.86075 27.1953 7.59557 27.3307C8.33035 27.4661 9.03591 26.9801 9.17134 26.2454C9.40148 24.9969 9.60685 24.0256 9.80925 23.2642L12.4697 23.6119V44.9414C12.4697 45.6744 13.0536 46.2742 13.7865 46.2938C14.5193 46.3134 15.1344 45.7459 15.1737 45.0138L15.9029 31.412H18.5073L19.2364 45.0138C19.2757 45.7459 19.8908 46.3134 20.6237 46.2938C21.3565 46.2742 21.9404 45.6744 21.9404 44.9414Z" fill="white"/>
<path d="M17.7069 17.8825H19.2339C19.2506 17.8825 19.268 17.8828 19.2844 17.8833L19.2941 17.8838L19.3039 17.8839C20.6484 17.912 21.8566 18.3765 22.8643 19.1385L24.2895 16.8065C22.9287 15.8308 21.2774 15.2205 19.3696 15.1788C19.3248 15.1773 19.2799 15.1766 19.2349 15.1766L13.9714 15.1765L17.7069 17.8825ZM5.02884 30.0589C3.16082 30.0589 1.64648 31.5732 1.64648 33.4412V34.5282C1.64648 35.2754 2.25222 35.8811 2.99943 35.8811C3.74663 35.8811 4.35237 35.2754 4.35237 34.5282V33.4412C4.35237 33.0677 4.65524 32.7648 5.02884 32.7648C5.40244 32.7648 5.70531 33.0677 5.70531 33.4412V46.2942C5.70531 47.0414 6.31105 47.6471 7.05826 47.6471C7.80549 47.6471 8.4112 47.0414 8.4112 46.2942V33.4412C8.4112 31.5732 6.89686 30.0589 5.02884 30.0589ZM43.5877 33.4412C43.5877 31.5732 45.1021 30.0589 46.9701 30.0589C48.8381 30.0589 50.3524 31.5732 50.3524 33.4412V46.2942C50.3524 47.0414 49.7467 47.6471 48.9995 47.6471C48.2523 47.6471 47.6465 47.0414 47.6465 46.2942V33.4412C47.6465 33.0677 47.3436 32.7648 46.9701 32.7648C46.5965 32.7648 46.2936 33.0677 46.2936 33.4412V34.5282C46.2936 35.2754 45.6879 35.8811 44.9407 35.8811C44.1934 35.8811 43.5877 35.2754 43.5877 34.5282V33.4412Z" fill="white"/>
<path fill-rule="evenodd" clip-rule="evenodd" d="M34.1181 13.2426C37.1069 13.2426 39.5299 10.9496 39.5299 8.12129C39.5299 5.29287 37.1069 3 34.1181 3C31.1292 3 28.7063 5.29287 28.7063 8.12129C28.7063 10.9496 31.1292 13.2426 34.1181 13.2426ZM34.1181 10.6819C35.6124 10.6819 36.824 9.53553 36.824 8.12129C36.824 6.70708 35.6124 5.56063 34.1181 5.56063C32.6237 5.56063 31.4122 6.70708 31.4122 8.12129C31.4122 9.53553 32.6237 10.6819 34.1181 10.6819ZM36.1187 15.8032C36.7009 15.8033 37.7164 15.8642 38.7806 16.3713C40.5811 17.2292 41.6087 18.6339 42.219 19.875L42.3307 20.102C42.5432 20.5326 42.6013 20.6505 42.6318 20.7751C42.6433 20.8222 42.6509 20.8701 42.6613 20.9361C42.6799 21.0549 42.7078 21.2321 42.7844 21.5674C43.0216 22.6056 43.0272 22.632 43.1621 23.2883C43.2912 23.9158 43.5438 25.144 44.2577 28.5084C44.6989 30.5883 43.2751 32.6128 41.0774 33.0305C40.7253 33.0973 40.3749 33.1188 40.0328 33.0993L41.3668 38.9714C41.5688 40.0709 40.9827 41.2712 39.7297 41.6942C38.5021 42.1084 36.2767 42.6899 33.4416 42.6899C30.6064 42.6899 28.3811 42.1084 27.1534 41.6942C25.9005 41.2712 25.3144 40.0708 25.5164 38.9714L26.2459 35.0021C25.904 35.0214 25.5539 34.9999 25.202 34.9331C23.0042 34.5154 21.5804 32.4909 22.0216 30.4112C22.7353 27.0477 22.9879 25.8197 23.1169 25.1919C23.252 24.5357 23.2578 24.5083 23.4949 23.47C23.7447 22.3763 24.0812 21.0621 24.6648 19.8753C25.2751 18.6342 26.3027 17.2294 28.1032 16.3715C29.1674 15.8643 30.1827 15.8036 30.7642 15.8034L35.4832 15.8033L35.4928 15.8034L36.1187 15.8032ZM36.1183 18.3639L35.4689 18.3642L35.4587 18.3639L30.7651 18.364C30.3799 18.3643 29.8467 18.4076 29.32 18.6586C28.2472 19.1698 27.5743 20.0279 27.1181 20.9557C26.6714 21.8642 26.3851 22.9367 26.1397 24.0111C25.9066 25.0317 25.9033 25.0476 25.7763 25.6649L25.7732 25.6802C25.643 26.313 25.3896 27.5455 24.6746 30.9153C24.5275 31.6085 25.0021 32.2834 25.7347 32.4226C26.0743 32.4871 26.4105 32.4256 26.6887 32.2701L28.2937 23.9169L30.9559 24.375L30.1087 28.7849L30.1413 28.7508L28.1975 39.3271C29.2436 39.6676 31.0965 40.1292 33.4416 40.1292C35.7867 40.1292 37.6397 39.6676 38.6856 39.3271L36.7411 28.746L36.7702 28.7618L35.9273 24.375L38.5895 23.9169L39.6311 30.3892C39.9011 30.5286 40.2212 30.5814 40.5446 30.5198C41.2772 30.3807 41.7518 29.7059 41.6048 29.0125C40.8897 25.643 40.6363 24.4103 40.5062 23.7774L40.5031 23.7625C40.376 23.1448 40.3729 23.1292 40.1397 22.1084C40.0395 21.6703 40.0332 21.5488 40.0305 21.497C40.0298 21.4834 40.0294 21.4746 40.0275 21.466C40.0241 21.4506 40.016 21.4361 39.9934 21.3954C39.9601 21.3354 39.8948 21.2179 39.7657 20.9554C39.3095 20.0277 38.6367 19.1696 37.5638 18.6583C37.0371 18.4073 36.5036 18.3639 36.1183 18.3639Z" fill="white"/>
<path d="M27.3516 47.0796V43.9702C29.118 44.2004 30.7438 44.3425 32.3332 44.399L31.3273 47.6233C31.0417 48.5387 30.089 49.1168 29.0906 48.9803C28.0923 48.8437 27.3516 48.0341 27.3516 47.0796ZM35.5649 47.6621L34.4751 44.423C36.1092 44.4017 37.7549 44.2891 39.528 44.0881V47.0796C39.528 48.0263 38.7988 48.8319 37.8101 48.9772C36.8215 49.1226 35.8683 48.5643 35.5649 47.6621Z" fill="white"/>
</svg>
