<svg width="52" height="52" viewBox="0 0 52 52" fill="none" xmlns="http://www.w3.org/2000/svg">
<g clip-path="url(#clip0_2091_7084)">
<path d="M50.375 28.4375H43.7734V24.686C43.7734 16.6434 46.5404 8.75546 51.5646 2.47504C51.9864 1.94783 52.0109 1.20591 51.6246 0.652092C51.2385 0.0981702 50.5336 -0.135017 49.8933 0.0781623C38.3356 3.93063 30.5703 14.7044 30.5703 26.8872V28.4375H21.4297V24.686C21.4297 16.6434 24.1967 8.75546 29.2209 2.47504C29.6426 1.94783 29.6671 1.20591 29.2809 0.652092C28.8946 0.0981702 28.19 -0.135017 27.5495 0.0781623C15.9918 3.93063 8.22656 14.7044 8.22656 26.8872V28.4375H1.625C0.783656 28.4375 0.101562 29.1196 0.101562 29.9609V50.4765C0.101562 51.3179 0.783656 52 1.625 52H50.375C51.2163 52 51.8984 51.3179 51.8984 50.4765V29.9609C51.8984 29.1196 51.2163 28.4375 50.375 28.4375ZM33.6172 26.8872C33.6172 17.8158 38.4435 9.61956 46.0344 5.15842C42.5856 11.0517 40.7266 17.8169 40.7266 24.686V30.9765C40.7266 32.9366 39.1319 34.5312 37.1719 34.5312C35.2118 34.5312 33.6172 32.9366 33.6172 30.9765V26.8872ZM11.2734 26.8872C11.2734 17.8158 16.0998 9.61956 23.6907 5.15842C20.2418 11.0517 18.3828 17.8169 18.3828 24.686V30.9765C18.3828 32.9366 16.7882 34.5312 14.8281 34.5312C12.8681 34.5312 11.2734 32.9366 11.2734 30.9765V26.8872ZM48.8516 48.9531H3.14844V44.0119C3.36964 44.1283 3.58313 44.27 3.82535 44.4315C4.67482 44.998 5.73198 45.7031 7.71631 45.7031C9.70064 45.7031 10.7578 44.9981 11.6073 44.4314C12.2932 43.974 12.7463 43.6719 13.8077 43.6719C14.8692 43.6719 15.3222 43.9741 16.0082 44.4314C16.8575 44.998 17.9148 45.7031 19.8991 45.7031C21.8837 45.7031 22.941 44.9981 23.7907 44.4315C24.4769 43.974 24.9301 43.6719 25.9921 43.6719C27.053 43.6719 27.506 43.974 28.1915 44.4314C29.0408 44.998 30.0978 45.7031 32.0818 45.7031C34.0667 45.7031 35.1244 44.9982 35.9743 44.4316C36.6607 43.9741 37.1143 43.6719 38.1768 43.6719C39.2407 43.6719 39.6947 43.9743 40.3819 44.4319C41.2321 44.9983 42.2902 45.7031 44.276 45.7031C46.2617 45.7031 47.3199 44.9984 48.1702 44.4319C48.4141 44.2694 48.6288 44.1271 48.8518 44.0103V48.9531H48.8516ZM48.8516 40.7866C47.7886 41.0274 47.0819 41.4958 46.4809 41.896C45.7936 42.3538 45.3397 42.6561 44.2758 42.6561C43.2119 42.6561 42.758 42.3537 42.0707 41.896C41.2206 41.3297 40.1624 40.6249 38.1766 40.6249C36.1917 40.6249 35.1341 41.3298 34.2843 41.8963C33.5978 42.3539 33.1442 42.6561 32.0816 42.6561C31.0207 42.6561 30.5678 42.354 29.8822 41.8965C29.033 41.3301 27.9759 40.625 25.992 40.625C24.0074 40.625 22.9501 41.33 22.1004 41.8965C21.4143 42.3541 20.961 42.6562 19.899 42.6562C18.8376 42.6562 18.3845 42.354 17.6987 41.8966C16.8491 41.33 15.7919 40.625 13.8076 40.625C11.8234 40.625 10.7661 41.33 9.91656 41.8966C9.23081 42.354 8.77774 42.6562 7.71631 42.6562C6.65498 42.6562 6.20191 42.354 5.51606 41.8966C4.91583 41.4963 4.20997 41.028 3.14844 40.787V31.4843H8.24799C8.5084 34.8878 11.3591 37.5781 14.8281 37.5781C18.2972 37.5781 21.1478 34.8878 21.4083 31.4843H30.5918C30.8523 34.8878 33.7029 37.5781 37.172 37.5781C40.6411 37.5781 43.4916 34.8878 43.7521 31.4843H48.8516V40.7866Z" fill="white"/>
<path d="M27.0156 37.5781C27.857 37.5781 28.5391 36.8961 28.5391 36.0547C28.5391 35.2133 27.857 34.5312 27.0156 34.5312C26.1743 34.5312 25.4922 35.2133 25.4922 36.0547C25.4922 36.8961 26.1743 37.5781 27.0156 37.5781Z" fill="white"/>
<path d="M45.2969 39.6094C46.1382 39.6094 46.8203 38.9273 46.8203 38.0859C46.8203 37.2446 46.1382 36.5625 45.2969 36.5625C44.4555 36.5625 43.7734 37.2446 43.7734 38.0859C43.7734 38.9273 44.4555 39.6094 45.2969 39.6094Z" fill="white"/>
<path d="M6.70312 39.6094C7.5445 39.6094 8.22656 38.9273 8.22656 38.0859C8.22656 37.2446 7.5445 36.5625 6.70312 36.5625C5.86175 36.5625 5.17969 37.2446 5.17969 38.0859C5.17969 38.9273 5.86175 39.6094 6.70312 39.6094Z" fill="white"/>
</g>
<defs>
<clipPath id="clip0_2091_7084">
<rect width="52" height="52" fill="white"/>
</clipPath>
</defs>
</svg>
