<svg width="33" height="37" viewBox="0 0 33 37" fill="none" xmlns="http://www.w3.org/2000/svg">
<path d="M32.29 17.16C32.29 14.36 30 12.07 27.2 12.07C24.4 12.07 22.1 14.35 22.1 17.16C22.1 19.68 23.93 21.77 26.34 22.17V27.51C26.34 31.67 22.96 35.05 18.8 35.05C14.64 35.05 11.26 31.67 11.26 27.51L11.24 21.39C13.21 21.13 15.14 19.97 16.86 18C17.11 17.71 17.19 17.34 17.15 16.98C19.39 14.01 20.78 9.97999 20.78 6.87C20.78 2.08 18.63 1.57999 15.08 0.769989L15.07 0.759979C14.85 0.319979 14.41 0 13.88 0C13.13 0 12.52 0.610006 12.52 1.35001C12.52 2.10001 13.13 2.70999 13.88 2.70999C14.18 2.70999 14.46 2.59 14.68 2.41L14.71 2.41998C18.16 3.20998 19.09 3.43 19.09 6.87C19.09 9.59999 17.8 13.26 15.82 15.9C15.49 15.92 15.17 16.06 14.93 16.33C13.92 17.5 12.31 18.9 10.4 18.9C8.49999 18.9 6.89001 17.52 5.88 16.35C5.64001 16.08 5.31002 15.94 4.99002 15.92C3.01002 13.27 1.72 9.61 1.72 6.88C1.72 3.43 2.64001 3.21999 6.10001 2.42999L6.11002 2.41998C6.35002 2.59998 6.61001 2.72 6.92001 2.72C7.67001 2.72 8.28 2.10999 8.28 1.35999C8.28 0.619985 7.67001 0.00997925 6.92001 0.00997925C6.38001 0.00997925 5.93999 0.329989 5.70999 0.769989C2.15999 1.58999 0 2.08 0 6.88C0 9.99 1.4 14.04 3.66 17.01C3.62 17.37 3.69001 17.74 3.95001 18.03C5.66001 19.99 7.58002 21.14 9.55002 21.4V27.52C9.55002 32.62 13.71 36.76 18.8 36.76C23.9 36.76 28.03 32.61 28.03 27.52V22.18C30.44 21.76 32.29 19.68 32.29 17.16ZM27.19 20.56C25.32 20.56 23.79 19.04 23.79 17.16C23.79 15.29 25.32 13.77 27.19 13.77C29.06 13.77 30.58 15.29 30.58 17.16C30.58 19.03 29.06 20.56 27.19 20.56Z" fill="white"/>
<path d="M27.1906 14.62C25.7906 14.62 24.6406 15.76 24.6406 17.16C24.6406 18.57 25.7806 19.71 27.1906 19.71C28.5906 19.71 29.7406 18.58 29.7406 17.16C29.7406 15.75 28.6006 14.62 27.1906 14.62Z" fill="white"/>
</svg>
