<svg width="44" height="44" viewBox="0 0 44 44" fill="none" xmlns="http://www.w3.org/2000/svg">
<g clip-path="url(#clip0_1910_1279)">
<path d="M31.4982 44C29.2743 44 27.3603 42.4325 26.9497 40.271L24.9 29.4965C24.6378 28.127 23.4187 27.1333 21.9997 27.1333C20.5807 27.1333 19.3615 28.127 19.1012 29.4965L17.0515 40.2692C16.639 42.4325 14.7268 44 12.5012 44C10.1307 44 8.15251 42.2437 7.89951 39.9135L7.09651 32.5362C6.80684 29.8668 6.23851 27.2232 5.40617 24.673L3.84051 19.8697C2.50951 15.7832 1.83301 11.5353 1.83301 7.24167C1.83301 3.24867 5.12201 0 9.16634 0C12.1455 0 15.0238 0.726 18.1203 2.22017C20.731 3.4815 23.2702 3.4815 25.879 2.22017C28.9755 0.726 31.8538 0 34.6772 0C38.8773 0 42.1663 3.24867 42.1663 7.24167C42.1663 11.5335 41.4898 15.7832 40.1588 19.8715L38.5932 24.673C37.7608 27.2232 37.1925 29.8668 36.9028 32.5362L36.0998 39.9135C35.8468 42.2437 33.8687 44 31.4982 44ZM21.9997 25.3C24.2987 25.3 26.2768 26.9207 26.6985 29.1555L28.7482 39.9282C28.9957 41.2243 30.1525 42.1667 31.4982 42.1667C32.93 42.1667 34.1253 41.1125 34.2775 39.7155L35.0805 32.3382C35.3848 29.546 35.9807 26.774 36.8515 24.1047L38.4172 19.3032C39.6877 15.4 40.333 11.341 40.333 7.24167C40.333 4.25883 37.8653 1.83333 34.833 1.83333C32.1343 1.83333 29.5182 2.50067 26.6765 3.872C23.5727 5.36983 20.4248 5.36983 17.3228 3.872C14.4812 2.50067 11.865 1.83333 9.32218 1.83333C6.13401 1.83333 3.66634 4.25883 3.66634 7.24167C3.66634 11.341 4.31167 15.4 5.58401 19.3032L7.14967 24.1047C8.02051 26.774 8.61634 29.5442 8.91884 32.3363L9.72184 39.7137C9.87401 41.1125 11.0693 42.1667 12.5012 42.1667C13.8468 42.1667 15.0018 41.2243 15.2493 39.9263L17.299 29.1537C17.7225 26.9207 19.7007 25.3 21.9997 25.3ZM35.1887 39.8145H35.207H35.1887Z" fill="white" stroke="white"/>
<path d="M38.9583 20.1667H32.516C30.7688 20.1667 29.1995 19.1969 28.4167 17.633L27.6925 16.1865C27.225 15.2497 26.2808 14.6667 25.234 14.6667H18.766C17.7192 14.6667 16.775 15.2497 16.3075 16.1865L15.5833 17.633C14.8005 19.1969 13.2312 20.1667 11.484 20.1667H5.04167C4.53567 20.1667 4.125 19.756 4.125 19.25C4.125 18.744 4.53567 18.3334 5.04167 18.3334H11.484C12.5308 18.3334 13.4732 17.7504 13.9425 16.8135L14.6667 15.367C15.4495 13.8032 17.0188 12.8334 18.766 12.8334H25.234C26.9812 12.8334 28.5505 13.8032 29.3333 15.367L30.0575 16.8135C30.525 17.7504 31.4692 18.3334 32.516 18.3334H38.9583C39.4643 18.3334 39.875 18.744 39.875 19.25C39.875 19.756 39.4643 20.1667 38.9583 20.1667Z" fill="white" stroke="white"/>
</g>
<defs>
<clipPath id="clip0_1910_1279">
<rect width="44" height="44" fill="white"/>
</clipPath>
</defs>
</svg>
