<svg width="12" height="30" viewBox="0 0 12 30" fill="none" xmlns="http://www.w3.org/2000/svg">
<path d="M11.1595 0.0246226C10.7317 -0.0872831 10.2965 0.192488 10.1914 0.656097C10.0863 1.1277 9.93621 1.5833 9.74859 2.01494H2.25892C2.0713 1.5833 1.92869 1.1277 1.81612 0.656097C1.71106 0.200481 1.2758 -0.0872831 0.848034 0.0246226C0.420267 0.136528 0.150068 0.600144 0.255134 1.05576C0.427742 1.82311 0.69794 2.55848 1.03565 3.23791C1.04316 3.25389 1.05064 3.26988 1.05814 3.28586C1.81612 4.7806 2.94186 6.04355 4.33022 6.91481C1.65105 8.60139 0 11.6628 0 14.996C0 18.3212 1.65105 21.3906 4.33022 23.0772C2.94186 23.9485 1.80861 25.2114 1.05814 26.7061C1.05064 26.7221 1.04316 26.7381 1.03565 26.7541C0.690436 27.4415 0.427742 28.1769 0.255134 28.9442C0.150068 29.3999 0.412762 29.8635 0.848034 29.9754C1.2758 30.0873 1.71106 29.8075 1.81612 29.3439C1.92119 28.8723 2.0713 28.4167 2.25892 27.985H9.74859C9.93621 28.4167 10.0788 28.8723 10.1914 29.3439C10.2965 29.7995 10.7317 30.0873 11.1595 29.9754C11.3096 29.9354 11.4372 29.8555 11.5347 29.7516C11.7298 29.5437 11.8199 29.248 11.7448 28.9442C11.5722 28.1769 11.3021 27.4415 10.9643 26.7621C10.9568 26.7461 10.9494 26.7301 10.9419 26.7141C10.1839 25.2194 9.05814 23.9565 7.66978 23.0852C8.31518 22.6775 8.90056 22.1899 9.41838 21.6384C11.0469 19.9039 12 17.5299 12 15.004C12 11.6788 10.349 8.60939 7.66978 6.92281C8.30768 6.52315 8.89305 6.03555 9.41838 5.48401C10.0188 4.84455 10.5291 4.10917 10.9419 3.30984C10.9569 3.28586 10.9644 3.26189 10.9794 3.23791C11.3171 2.55048 11.5872 1.82311 11.7598 1.05576C11.8574 0.600144 11.5948 0.136528 11.1595 0.0246226ZM5.37334 8.26567L6.01127 7.89799L6.64915 8.26567C7.47467 8.74527 8.18011 9.37674 8.75797 10.1201H3.26452C3.83488 9.37674 4.54782 8.74527 5.37334 8.26567ZM10.349 14.1407H1.65851C1.74106 13.3334 1.94372 12.558 2.25892 11.8307H9.74859C10.0638 12.558 10.2664 13.3334 10.349 14.1407ZM9.7561 18.1693H2.26643C1.95874 17.4419 1.75608 16.6666 1.66602 15.8593H10.3565C10.2664 16.6586 10.0638 17.4419 9.7561 18.1693ZM3.26452 26.2745C3.84239 25.5231 4.55533 24.8917 5.37334 24.42L6.01127 24.0524L6.64915 24.42C7.46716 24.8917 8.18011 25.5311 8.75797 26.2745H3.26452ZM6.64164 21.7343L6.00376 22.102L5.36583 21.7343C4.54031 21.2547 3.83487 20.6233 3.25701 19.8799H8.75045C8.17259 20.6233 7.46715 21.2547 6.64164 21.7343ZM6.64164 5.57993L6.00376 5.94763L5.36583 5.57993C4.54782 5.10832 3.83487 4.46888 3.25701 3.72551H8.74294C8.17259 4.46888 7.45965 5.10832 6.64164 5.57993Z" fill="white"/>
</svg>
