<svg width="52" height="52" viewBox="0 0 52 52" fill="none" xmlns="http://www.w3.org/2000/svg">
<g clip-path="url(#clip0_2091_7097)">
<path d="M35.7497 52C35.4724 52 35.195 51.8938 34.9827 51.6836L30.736 47.437C25.1612 41.8621 23.924 33.449 27.6659 26.5048L29.0309 23.959C29.7112 22.6871 31.1282 22.0285 32.5344 22.308L36.131 23.0295C39.095 23.6253 41.5759 25.5168 42.9365 28.2208L45.3849 33.0958C45.6514 33.631 45.4347 34.281 44.9017 34.5496C44.3687 34.814 43.7144 34.6038 43.4457 34.0686L40.9974 29.1936C39.9422 27.0898 38.0117 25.6165 35.7042 25.1528L32.1075 24.4313C31.6287 24.3381 31.165 24.5591 30.9397 24.9816L29.5747 27.5296C26.29 33.6266 27.3734 41.0085 32.2679 45.903L36.5145 50.1496C36.937 50.5721 36.937 51.259 36.5145 51.6815C36.3044 51.8938 36.027 52 35.7497 52Z" fill="white" stroke="white"/>
<path d="M48.749 30.3333C48.385 30.3333 48.0275 30.1491 47.8239 29.8133L45.8739 26.6066C43.2154 22.2819 39.6902 19.8531 34.774 18.9648C33.1555 18.6722 32.0115 17.1577 32.1654 15.5154C32.6594 10.2786 30.5035 5.19991 26.4085 1.93041C25.9405 1.55775 25.8625 0.875246 26.2374 0.407245C26.6122 -0.0585879 27.2925 -0.134421 27.7584 0.236079C32.4297 3.96275 34.8824 9.75208 34.3234 15.7191C34.2735 16.2499 34.6397 16.7374 35.1597 16.8306C40.7237 17.8359 44.7169 20.5833 47.722 25.4756L49.6742 28.6866C49.9862 29.1979 49.8237 29.8631 49.3124 30.1751C49.1369 30.2834 48.9419 30.3333 48.749 30.3333Z" fill="white" stroke="white"/>
<path d="M24.9174 51.9999C24.64 51.9999 24.3627 51.8938 24.1504 51.6836L22.0704 49.6036C19.9449 47.4802 18.3914 44.8304 17.5767 41.9444C17.4792 41.5977 17.2235 41.3117 16.8942 41.1796C16.7317 41.1124 16.4045 41.0344 16.0752 41.2337C14.8229 41.9791 13.8175 43.0581 13.1675 44.3581L10.7192 49.2353C10.4484 49.7683 9.79404 49.9806 9.2632 49.7162C8.7302 49.4476 8.51354 48.7976 8.78004 48.2624L11.2284 43.3874C12.0647 41.7169 13.356 40.3281 14.9659 39.3704C15.7935 38.8786 16.788 38.8006 17.6959 39.1646C18.647 39.5437 19.3815 40.3606 19.6632 41.3529C20.376 43.8836 21.7389 46.2062 23.6022 48.0696L25.6822 50.1496C26.1047 50.5721 26.1047 51.2589 25.6822 51.6814C25.472 51.8938 25.1947 51.9999 24.9174 51.9999Z" fill="white" stroke="white"/>
<path d="M5.41585 45.5C5.22301 45.5 5.02801 45.4501 4.85251 45.3418C4.34118 45.0298 4.17868 44.3646 4.49068 43.8533L6.44068 40.6466C8.65501 37.0478 12.0545 34.3005 16.0108 32.9008C16.9252 32.578 17.6337 31.8825 17.9565 30.9985C18.2447 30.212 18.5935 29.432 18.9943 28.6758L21.8565 23.361C25.3427 16.8913 23.7653 8.76413 18.1082 4.03646L15.558 1.91746C15.0965 1.53396 15.0315 0.851462 15.415 0.392129C15.7985 -0.0672045 16.4853 -0.130038 16.9403 0.249129L19.497 2.37246C25.945 7.7588 27.7412 17.0191 23.7697 24.3901L20.9097 29.6985C20.5565 30.3615 20.2467 31.0505 19.9953 31.7395C19.4515 33.2345 18.262 34.4023 16.7367 34.944C13.244 36.179 10.2432 38.6035 8.29101 41.7776L6.34101 44.98C6.13735 45.3158 5.77985 45.5 5.41585 45.5Z" fill="white" stroke="white"/>
<path d="M11.9171 17.3333C11.7091 17.3333 11.5011 17.2748 11.317 17.1513C10.8186 16.8198 10.6843 16.1481 11.0158 15.6498C13.839 11.4161 19.182 9.5853 24.005 11.193L24.7178 11.4313C25.2855 11.6198 25.591 12.2351 25.4025 12.8006C25.2118 13.3705 24.5986 13.6781 24.031 13.4853L23.3181 13.247C19.4181 11.9448 15.1 13.4268 12.8163 16.8501C12.6083 17.1643 12.266 17.3333 11.9171 17.3333Z" fill="white" stroke="white"/>
<path d="M40.0833 43.3333C39.7822 43.3333 39.4832 43.2076 39.2687 42.9628C37.063 40.4451 33.8802 38.9999 30.5348 38.9999H27.0833C26.4853 38.9999 26 38.5146 26 37.9166C26 37.3186 26.4853 36.8333 27.0833 36.8333H30.5348C34.5063 36.8333 38.2828 38.5471 40.898 41.5371C41.2945 41.9878 41.2468 42.6703 40.7962 43.0668C40.5903 43.2444 40.3368 43.3333 40.0833 43.3333Z" fill="white" stroke="white"/>
</g>
<defs>
<clipPath id="clip0_2091_7097">
<rect width="52" height="52" fill="white"/>
</clipPath>
</defs>
</svg>
