<svg width="52" height="52" viewBox="0 0 52 52" fill="none" xmlns="http://www.w3.org/2000/svg">
<g clip-path="url(#clip0_2091_7073)">
<path d="M25.9999 6.19531C16.2994 6.19531 7.28022 11.8332 0.443003 18.7089C-0.150106 19.3052 -0.147329 20.2701 0.449351 20.8632C1.04603 21.4567 2.01048 21.4539 2.60359 20.8572C6.91722 16.5194 15.6925 9.24219 25.9999 9.24219C36.3073 9.24219 45.0825 16.5194 49.3961 20.8572C49.9876 21.4519 50.9521 21.4583 51.5508 20.8632C52.1474 20.2701 52.1498 19.3052 51.5567 18.7089C44.7159 11.8297 35.6975 6.19531 25.9999 6.19531Z" fill="white"/>
<path d="M7.72123 37.8201C12.8434 42.2171 19.1922 45.8047 26.0001 45.8047C32.8091 45.8047 39.1584 42.2163 44.279 37.8201C48.8001 33.9385 51.5946 30.101 51.7113 29.9395C52.0965 29.4067 52.0965 28.687 51.7113 28.1542C51.5946 27.9928 48.8001 24.1552 44.279 20.2736C39.1572 15.8767 32.808 12.2891 26.0001 12.2891C19.191 12.2891 12.8418 15.8779 7.72123 20.274C3.20011 24.1552 0.405556 27.9928 0.288918 28.1542C-0.0963058 28.687 -0.0963058 29.4067 0.288918 29.9395C0.405556 30.101 3.20011 33.9385 7.72123 37.8201ZM26.0001 15.3359C32.4668 15.3359 38.4026 19.2544 42.2433 22.5421C45.2509 25.1161 47.4849 27.7218 48.5493 29.0465C47.452 30.41 45.1097 33.1348 41.9454 35.798C37.748 39.3317 32.1038 42.7578 26.0001 42.7578C19.5334 42.7578 13.5976 38.8393 9.75684 35.552C6.74924 32.9777 4.51487 30.3719 3.45045 29.0473C4.45219 27.8031 6.48978 25.4259 9.24229 22.9964C13.5087 19.2298 19.4934 15.3359 26.0001 15.3359Z" fill="white"/>
<path d="M26 39.7109C31.8803 39.7109 36.6641 34.9272 36.6641 29.0469C36.6641 23.1666 31.8803 18.3828 26 18.3828C20.1197 18.3828 15.3359 23.1666 15.3359 29.0469C15.3359 34.9272 20.1197 39.7109 26 39.7109ZM26 21.4297C30.2002 21.4297 33.6172 24.8467 33.6172 29.0469C33.6172 33.247 30.2002 36.6641 26 36.6641C21.7998 36.6641 18.3828 33.247 18.3828 29.0469C18.3828 24.8467 21.7998 21.4297 26 21.4297Z" fill="white"/>
<path d="M26 33.6172C28.52 33.6172 30.5703 31.5669 30.5703 29.0469C30.5703 26.5269 28.52 24.4766 26 24.4766C23.48 24.4766 21.4297 26.5269 21.4297 29.0469C21.4297 31.5669 23.48 33.6172 26 33.6172ZM26 27.5234C26.8399 27.5234 27.5234 28.207 27.5234 29.0469C27.5234 29.8867 26.8399 30.5703 26 30.5703C25.1601 30.5703 24.4766 29.8867 24.4766 29.0469C24.4766 28.207 25.1601 27.5234 26 27.5234Z" fill="white"/>
</g>
<defs>
<clipPath id="clip0_2091_7073">
<rect width="52" height="52" fill="white"/>
</clipPath>
</defs>
</svg>
